<svg xmlns="http://www.w3.org/2000/svg" viewBox="0 0 800 500">
  <defs>
    <filter id="jitter" x="-20%" y="-20%" width="140%" height="140%">
      <feTurbulence type="fractalNoise" baseFrequency="0.4" numOctaves="3" result="noise" />
      <feDisplacementMap in="SourceGraphic" in2="noise" scale="3.5" xChannelSelector="R" yChannelSelector="G" />
    </filter>
  </defs>
  
  <g filter="url(#jitter)" fill="none" stroke-linecap="round" stroke-linejoin="round">
    
    <path d="M 45 55 L 75 85 M 75 55 L 45 85" stroke="#461b4a" stroke-width="8" />

    <path d="M 30 105 Q 400 95 770 100" stroke="#d1b1d1" stroke-width="10" />
    <path d="M 28 150 Q 400 155 772 148" stroke="#461b4a" stroke-width="4.5" />
    <path d="M 25 195 Q 400 190 775 198" stroke="#d1b1d1" stroke-width="5" />
    <path d="M 25 240 Q 400 245 775 238" stroke="#461b4a" stroke-width="4.5" />
    <path d="M 25 285 Q 400 280 775 288" stroke="#461b4a" stroke-width="4.5" />
    <path d="M 25 330 Q 400 335 775 328" stroke="#d1b1d1" stroke-width="5" />
    <path d="M 25 375 Q 400 370 775 378" stroke="#461b4a" stroke-width="4.5" />

    <circle cx="85" cy="415" r="10" fill="#461b4a" stroke="none" />
    
    <circle cx="150" cy="460" r="8" stroke="#af85ac" stroke-width="4" />
    
    <circle cx="225" cy="415" r="12" fill="#af85ac" stroke="none" />
    
    <circle cx="300" cy="465" r="10" fill="#461b4a" stroke="none" />
    
    <path d="M 405 430 L 435 460 M 435 430 L 405 460" stroke="#461b4a" stroke-width="6" />
    
    <circle cx="500" cy="410" r="11" fill="#af85ac" stroke="none" />
    
    <circle cx="550" cy="460" r="10" fill="#461b4a" stroke="none" />
    
    <circle cx="670" cy="435" r="22" stroke="#461b4a" stroke-width="6" />

  </g>
</svg>
