<?xml version="1.0" encoding="UTF-8"?>
<svg xmlns="http://www.w3.org/2000/svg" viewBox="0 0 600 530">
    <defs>
        <filter id="jittery-edges" x="-5%" y="-5%" width="110%" height="110%">
            <feTurbulence type="fractalNoise" baseFrequency="0.06" numOctaves="3" result="noise" seed="20" />
            <feDisplacementMap in="SourceGraphic" in2="noise" scale="7.3" xChannelSelector="R" yChannelSelector="G" />
        </filter>
    </defs>

    <g filter="url(#jittery-edges)">
        <path d="M 160 250 L 90 260 L 150 310 Z M 160 360 L 95 405 L 170 430 Z M 220 480 L 170 520 L 250 500 Z" fill="#3d1c60"/>
        <path d="M 430 260 L 495 285 L 450 325 Z M 440 335 L 500 355 L 430 400 Z" fill="#3d1c60"/>

        <path d="M 170 250 C 170 80, 420 80, 450 250 Z" fill="#ffffff" stroke="#3d1c60" stroke-width="14" stroke-linejoin="round"/>
        
        <path d="M 290 85 L 290 60 Q 310 55 330 60 L 330 85 Z" fill="#ffffff" stroke="#3d1c60" stroke-width="12" stroke-linejoin="round"/>

        <path d="M 170 300 C 100 290, 85 385, 175 375 Z" fill="#ffffff" stroke="#3d1c60" stroke-width="14" stroke-linecap="round" stroke-linejoin="round"/>
        <path d="M 155 320 C 120 320, 120 360, 160 355 Z" fill="#ffffff" stroke="#3d1c60" stroke-width="8"/>

        <path d="M 180 260 C 160 380, 220 500, 310 500 C 410 490, 470 380, 430 270 L 180 260 Z" fill="#ffffff"/>

        <path d="M 180 260 L 170 360 Q 250 395 310 325 Q 360 285 415 260 L 180 260 Z" fill="#a5689d"/>

        <path d="M 180 260 C 160 380, 220 500, 310 500 C 410 490, 470 380, 430 270" fill="none" stroke="#3d1c60" stroke-width="14" stroke-linecap="round"/>

        <path d="M 110 270 Q 300 170 510 270 Q 300 235 110 270 Z" fill="#ffffff" stroke="#3d1c60" stroke-width="14" stroke-linejoin="round"/>

        <ellipse cx="250" cy="375" rx="40" ry="65" fill="#ffffff" stroke="#3d1c60" stroke-width="14" transform="rotate(-15 250 375)" />
        <path d="M 225 350 L 270 395 M 270 350 L 225 395" stroke="#3d1c60" stroke-width="14" stroke-linecap="round"/>

        <ellipse cx="400" cy="355" rx="45" ry="75" fill="#ffffff" stroke="#3d1c60" stroke-width="14" transform="rotate(10 400 355)" />
        <circle cx="395" cy="355" r="14" fill="none" stroke="#3d1c60" stroke-width="10"/>
        <circle cx="395" cy="355" r="5" fill="#3d1c60"/>

        <ellipse cx="340" cy="460" rx="18" ry="10" fill="none" stroke="#3d1c60" stroke-width="12"/>

        <g stroke="#3d1c60" stroke-width="8" stroke-linecap="round" stroke-linejoin="round" fill="none">
            <path d="M 265 140 L 275 90 L 295 120" />
            <path d="M 295 120 Q 315 110 335 120" />
            <path d="M 335 120 L 355 90 L 365 140" />
            <path d="M 265 140 Q 315 190 365 140" />
            <path d="M 305 150 Q 315 165 315 150 Q 315 165 325 150" />
        </g>
        <circle cx="295" cy="140" r="5" fill="#3d1c60"/>
        <circle cx="335" cy="140" r="5" fill="#3d1c60"/>
    </g>
</svg>
