<svg xmlns="http://www.w3.org/2000/svg" viewBox="0 0 500 410" width="500" height="410">
    <defs>
        <filter id="rough-edge" x="-10%" y="-10%" width="120%" height="120%">
            <feTurbulence type="fractalNoise" baseFrequency="0.06" numOctaves="3" result="noise" seed="1" />
            <feDisplacementMap in="SourceGraphic" in2="noise" scale="9.0" xChannelSelector="R" yChannelSelector="G" />
        </filter>
    </defs>

    <g filter="url(#rough-edge)" stroke-linejoin="round" stroke-linecap="round" transform="translate(10, 10)">
        <path d="M15,15 L35,35 M35,15 L15,35" stroke="#a5689d" stroke-width="6"/>
        <path d="M45,20 C60,18 70,20 75,22 C78,45 80,65 82,90 C100,88 115,85 125,85 C128,95 125,105 120,110 C95,115 70,115 50,112 C45,80 42,50 45,20 Z" fill="#3e1c61" stroke="#3e1c61" stroke-width="2"/>
        <path d="M135,25 C150,22 165,22 170,25 C168,45 165,65 170,75 C175,80 180,75 185,55 C187,45 190,30 195,28 C210,25 220,25 225,30 C220,65 215,95 210,110 C185,125 160,120 145,110 C130,95 132,60 135,25 Z" fill="#a5689d" stroke="#a5689d" stroke-width="2"/>
        <circle cx="230" cy="55" r="10" fill="#a5689d" />
        <path d="M310,30 C280,10 250,20 240,55 C235,90 250,115 280,120 C300,125 315,110 325,100 L310,85 C290,100 265,90 265,65 C265,45 280,30 300,35 L310,30 Z" fill="#3e1c61" stroke="#3e1c61" stroke-width="2"/>
        <path fill-rule="evenodd" d="M340,115 C350,65 365,30 375,25 C385,25 395,60 405,115 C390,118 380,118 370,115 C365,100 360,85 355,85 C345,85 340,100 335,115 Z M360,68 C367,65 374,65 377,68 C374,50 372,40 367,35 C362,50 360,60 360,68 Z" fill="#a5689d" stroke="#a5689d" stroke-width="2"/>

        <path d="M45,135 C70,130 100,130 115,135 C145,145 150,185 140,215 C125,240 90,245 50,235 C48,200 45,160 45,135 Z" fill="#3e1c61" stroke="#3e1c61" stroke-width="2"/>
        <path d="M65,155 C85,150 100,155 110,165 C120,185 115,205 100,215 C85,220 70,210 65,185 Z" fill="#a5689d" />
        <path d="M18,175 L30,190 M30,175 L18,190" stroke="#a5689d" stroke-width="5"/>
        <path fill-rule="evenodd" d="M135,240 C145,185 165,145 175,135 C185,130 195,145 205,180 C215,210 220,235 225,245 C210,248 200,245 190,240 C185,220 180,205 175,205 C165,205 155,220 150,240 Z M160,190 C170,195 180,190 185,190 C180,165 175,150 170,140 C160,160 155,175 160,190 Z" fill="#a5689d" stroke="#a5689d" stroke-width="2"/>
        <path d="M166,160 L179,175 M179,160 L166,175" stroke="#3e1c61" stroke-width="4"/>
        <path d="M225,140 C260,135 295,130 310,128 C305,145 300,155 295,165 C280,165 270,168 265,165 C280,185 295,205 305,215 C315,212 325,210 330,210 C325,225 320,245 315,250 C280,250 250,245 230,245 C235,230 240,220 245,215 C260,215 270,210 280,210 C265,190 255,170 240,165 C230,165 225,155 225,140 Z" fill="#3e1c61" stroke="#3e1c61" stroke-width="2"/>
        <circle cx="308" cy="195" r="7" fill="#a5689d" />
        <path d="M330,135 C345,130 355,130 360,135 C365,155 370,170 375,180 C385,155 395,145 405,135 C415,130 425,135 430,140 C415,165 405,185 395,200 C390,220 385,235 380,250 C365,250 355,245 345,245 C355,225 360,205 365,190 C350,175 340,155 330,135 Z" fill="#a5689d" stroke="#a5689d" stroke-width="2"/>
        <path fill-rule="evenodd" d="M435,230 A11,11 0 1,0 435,252 A11,11 0 1,0 435,230 M435,236 A5,5 0 1,1 435,246 A5,5 0 1,1 435,236 Z" fill="#a5689d"/>

        <g transform="translate(8, 36) scale(0.88)">
            <path d="M 10,290 L 22,302 M 22,290 L 10,302" stroke="#a5689d" stroke-width="4"/>
            <path d="M 65 295 C 50 280, 30 280, 20 295 C 10 310, 20 320, 35 325 C 55 330, 60 340, 55 355 C 45 370, 25 370, 15 355 L 25 345 C 35 355, 45 355, 45 350 C 50 340, 40 335, 25 330 C 5 320, 0 300, 10 285 C 25 265, 50 265, 65 280 Z" fill="#3e1c61" stroke="#3e1c61" stroke-width="2"/>
            <path d="M 75 285 C 100 282, 120 282, 130 285 C 130 295, 130 300, 120 300 C 115 300, 110 298, 110 298 L 110 355 C 110 365, 90 365, 90 355 L 90 300 C 85 300, 80 300, 75 298 Z" fill="#a5689d" stroke="#a5689d" stroke-width="2"/>
            <path d="M 130 285 C 140 285, 145 290, 145 300 L 145 340 C 145 350, 170 350, 170 340 L 170 300 C 170 290, 175 285, 185 285 C 195 295, 190 340, 185 350 C 175 370, 140 370, 130 350 C 120 330, 125 295, 130 285 Z" fill="#3e1c61" stroke="#3e1c61" stroke-width="2"/>
            <path fill-rule="evenodd" d="M 200 285 C 230 280, 255 300, 250 330 C 245 365, 215 370, 195 365 C 190 340, 190 300, 200 285 Z M 215 305 C 230 300, 235 345, 215 345 Z" fill="#a5689d" stroke="#a5689d" stroke-width="2"/>
            <path d="M 245 285 C 255 285, 260 290, 260 300 L 270 320 L 280 300 C 280 290, 290 285, 295 285 C 285 305, 275 330, 275 340 L 275 360 C 265 365, 255 360, 255 350 L 255 335 C 250 320, 240 300, 245 285 Z" fill="#3e1c61" stroke="#3e1c61" stroke-width="2"/>
            <circle cx="304" cy="325" r="6" fill="#3e1c61" />
            <path d="M 310 285 C 325 285, 330 295, 325 305 L 325 315 L 345 315 L 345 295 C 345 285, 365 285, 360 300 L 360 355 C 365 370, 345 370, 345 355 L 345 335 L 325 335 L 325 355 C 330 370, 310 370, 310 355 Z" fill="#a5689d" stroke="#a5689d" stroke-width="2"/>
            <path d="M 370 285 C 380 285, 385 290, 385 300 L 385 340 C 385 350, 410 350, 410 340 L 410 300 C 410 290, 415 285, 425 285 C 435 295, 430 340, 425 350 C 415 370, 380 370, 370 350 C 360 330, 365 295, 370 285 Z" fill="#3e1c61" stroke="#3e1c61" stroke-width="2"/>
            <path fill-rule="evenodd" d="M 435 285 C 465 280, 475 305, 460 315 C 480 325, 470 370, 435 365 C 430 340, 430 300, 435 285 Z M 450 300 C 465 295, 465 315, 450 310 Z M 450 325 C 465 325, 465 350, 450 345 Z" fill="#a5689d" stroke="#a5689d" stroke-width="2"/>
            <path d="M 470,335 L 482,347 M 482,335 L 470,347" stroke="#3e1c61" stroke-width="4"/>
            <circle cx="110" cy="380" r="5" fill="#a5689d" />
        </g>
    </g>
</svg>
