<svg xmlns="http://www.w3.org/2000/svg" viewBox="110 95 640 480" width="100%" height="100%">
    <defs>
        <filter id="jitter">
            <feTurbulence type="fractalNoise" baseFrequency="0.03" numOctaves="2" result="noise">
                <animate attributeName="seed" values="1;2;3;4;5;6;7;8" dur="0.6s" repeatCount="indefinite" calcMode="discrete" />
            </feTurbulence>
            <feDisplacementMap in="SourceGraphic" in2="noise" scale="4" xChannelSelector="R" yChannelSelector="G" />
        </filter>
    </defs>

    <g filter="url(#jitter)" fill="none" stroke="#FFFFFF" stroke-width="11.25" stroke-linecap="round" stroke-linejoin="round">
        
        <path d="M 230 200 L 410 110 L 730 220 L 490 330 L 220 230 C 195 215, 205 205, 230 200 Z" />
        <path d="M 380 180 L 470 145 L 560 180 L 470 215 Z" />
        <path d="M 220 230 C 205 250, 205 270, 210 290" />
        <path d="M 210 290 L 495 405" />
        <path d="M 490 330 L 495 405" />
        <path d="M 495 405 L 725 315" />
        <path d="M 725 315 L 730 220" />
        
        <path d="M 495 390 L 720 300" />
        <path d="M 510 355 L 710 250" />
        <path d="M 520 375 L 715 270" />

        <path d="M 210 290 L 140 320" />
        <path d="M 140 320 L 470 460" />
        <path d="M 470 460 L 735 350" />
        <path d="M 140 320 C 120 350, 120 380, 130 420" />
        <path d="M 130 420 L 480 560" />
        <path d="M 470 460 L 480 560" />
        <path d="M 480 560 L 730 450" />
        <path d="M 730 450 L 735 350" />
        
        <path d="M 480 540 L 720 435" />
        <path d="M 500 490 L 710 380" />
        <path d="M 515 515 L 715 405" />

    </g>
</svg>
