<svg xmlns="http://www.w3.org/2000/svg" viewBox="135 80 405 230" width="100%" height="100%">
    <defs>
        <filter id="jitter">
            <feTurbulence type="fractalNoise" baseFrequency="0.03" numOctaves="2" result="noise">
                <animate attributeName="seed" values="1;2;3;4;5;6;7;8" dur="0.6s" repeatCount="indefinite" calcMode="discrete" />
            </feTurbulence>
            <feDisplacementMap in="SourceGraphic" in2="noise" scale="4" xChannelSelector="R" yChannelSelector="G" />
        </filter>
    </defs>

    <g filter="url(#jitter)" fill="none" stroke="#FFFFFF" stroke-width="6" stroke-linecap="round" stroke-linejoin="round">
        <path d="M 284 175 C 290 220, 310 225, 330 220 C 350 215, 360 190, 380 190 C 400 190, 410 230, 430 230 C 450 230, 460 210, 480 210 C 490 210, 500 225, 510 225 C 530 225, 530 265, 510 265 C 500 265, 490 250, 480 250 C 460 250, 450 275, 430 275 C 410 275, 400 235, 380 235 C 360 235, 350 265, 330 265 C 290 265, 270 300, 220 300 C 170 300, 140 260, 150 195" />

        <path d="M 158 145 C 165 90, 235 90, 245 135" />

        <circle cx="180" cy="170" r="35" />
        <circle cx="255" cy="160" r="32" />
        
        <path d="M 215 165 L 223 163" />
        <path d="M 210 205 C 215 215, 225 215, 230 203" />

        <path d="M 200 295 Q 240 280, 255 195" />
        <path d="M 310 275 Q 330 250, 335 218" />
        <path d="M 390 255 Q 410 240, 400 205" />
        <path d="M 450 260 Q 470 240, 460 215" />

        <circle cx="190" cy="160" r="8" fill="#FFFFFF" stroke="none" />
        <circle cx="255" cy="160" r="8" fill="#FFFFFF" stroke="none" />
    </g>
</svg>
